<mxfile host="app.diagrams.net" agent="Mozilla/5.0 (Windows NT 10.0; Win64; x64) AppleWebKit/537.36 (KHTML, like Gecko) Chrome/131.0.0.0 Safari/537.36" version="26.0.4">
  <diagram name="Page-1" id="xlpdYjgYw3qPz9PH2eGz">
    <mxGraphModel dx="1840" dy="850" grid="1" gridSize="10" guides="1" tooltips="1" connect="1" arrows="1" fold="1" page="1" pageScale="1" pageWidth="827" pageHeight="1169" math="0" shadow="0">
      <root>
        <mxCell id="0" />
        <mxCell id="1" parent="0" />
        <mxCell id="akqkvoF0evXeWd-GE654-113" style="edgeStyle=orthogonalEdgeStyle;rounded=0;orthogonalLoop=1;jettySize=auto;html=1;" edge="1" parent="1" source="akqkvoF0evXeWd-GE654-115" target="akqkvoF0evXeWd-GE654-118">
          <mxGeometry relative="1" as="geometry" />
        </mxCell>
        <mxCell id="akqkvoF0evXeWd-GE654-114" style="edgeStyle=orthogonalEdgeStyle;rounded=0;orthogonalLoop=1;jettySize=auto;html=1;entryX=0.5;entryY=0;entryDx=0;entryDy=0;" edge="1" parent="1" source="akqkvoF0evXeWd-GE654-115" target="akqkvoF0evXeWd-GE654-120">
          <mxGeometry relative="1" as="geometry" />
        </mxCell>
        <mxCell id="akqkvoF0evXeWd-GE654-115" value="&#xa;Exploit Real-Time Location Data to Stalk Users&#xa;&#xa;" style="rounded=1;whiteSpace=wrap;html=1;" vertex="1" parent="1">
          <mxGeometry x="1090" y="680" width="230" height="60" as="geometry" />
        </mxCell>
        <mxCell id="akqkvoF0evXeWd-GE654-116" style="edgeStyle=orthogonalEdgeStyle;rounded=0;orthogonalLoop=1;jettySize=auto;html=1;" edge="1" parent="1" source="akqkvoF0evXeWd-GE654-118" target="akqkvoF0evXeWd-GE654-122">
          <mxGeometry relative="1" as="geometry" />
        </mxCell>
        <mxCell id="akqkvoF0evXeWd-GE654-117" style="edgeStyle=orthogonalEdgeStyle;rounded=0;orthogonalLoop=1;jettySize=auto;html=1;exitX=0;exitY=0.5;exitDx=0;exitDy=0;entryX=0.5;entryY=0;entryDx=0;entryDy=0;" edge="1" parent="1" source="akqkvoF0evXeWd-GE654-118" target="akqkvoF0evXeWd-GE654-126">
          <mxGeometry relative="1" as="geometry">
            <mxPoint x="402.5" y="960.0000000000002" as="targetPoint" />
          </mxGeometry>
        </mxCell>
        <mxCell id="akqkvoF0evXeWd-GE654-118" value="&lt;br&gt;Exploit API vulnerabilities" style="rounded=1;whiteSpace=wrap;html=1;" vertex="1" parent="1">
          <mxGeometry x="870" y="780" width="170" height="90" as="geometry" />
        </mxCell>
        <mxCell id="akqkvoF0evXeWd-GE654-119" style="edgeStyle=orthogonalEdgeStyle;rounded=0;orthogonalLoop=1;jettySize=auto;html=1;entryX=0.5;entryY=0;entryDx=0;entryDy=0;" edge="1" parent="1" source="akqkvoF0evXeWd-GE654-120" target="akqkvoF0evXeWd-GE654-130">
          <mxGeometry relative="1" as="geometry">
            <mxPoint x="1467.5" y="1060.0000000000002" as="targetPoint" />
          </mxGeometry>
        </mxCell>
        <mxCell id="akqkvoF0evXeWd-GE654-120" value="Intercept location data in transit" style="rounded=1;whiteSpace=wrap;html=1;" vertex="1" parent="1">
          <mxGeometry x="1360" y="770" width="190" height="90" as="geometry" />
        </mxCell>
        <mxCell id="akqkvoF0evXeWd-GE654-121" style="edgeStyle=orthogonalEdgeStyle;rounded=0;orthogonalLoop=1;jettySize=auto;html=1;entryX=0.5;entryY=0;entryDx=0;entryDy=0;" edge="1" parent="1" source="akqkvoF0evXeWd-GE654-122" target="akqkvoF0evXeWd-GE654-123">
          <mxGeometry relative="1" as="geometry" />
        </mxCell>
        <mxCell id="akqkvoF0evXeWd-GE654-122" value="Weak Authentication&lt;div&gt;&lt;br&gt;&lt;/div&gt;" style="rounded=1;whiteSpace=wrap;html=1;strokeColor=yellow;" vertex="1" parent="1">
          <mxGeometry x="875" y="912.5" width="160" height="90" as="geometry" />
        </mxCell>
        <mxCell id="akqkvoF0evXeWd-GE654-123" value="&#xa;Social engineering (phishing admins).&#xa;&#xa;" style="rounded=1;whiteSpace=wrap;html=1;strokeColor=red;" vertex="1" parent="1">
          <mxGeometry x="895" y="1070" width="120" height="60" as="geometry" />
        </mxCell>
        <mxCell id="akqkvoF0evXeWd-GE654-124" style="edgeStyle=orthogonalEdgeStyle;rounded=0;orthogonalLoop=1;jettySize=auto;html=1;entryX=0.5;entryY=0;entryDx=0;entryDy=0;" edge="1" parent="1" source="akqkvoF0evXeWd-GE654-126" target="akqkvoF0evXeWd-GE654-127">
          <mxGeometry relative="1" as="geometry">
            <mxPoint x="460" y="1010.0000000000002" as="targetPoint" />
          </mxGeometry>
        </mxCell>
        <mxCell id="akqkvoF0evXeWd-GE654-125" style="edgeStyle=orthogonalEdgeStyle;rounded=0;orthogonalLoop=1;jettySize=auto;html=1;entryX=0.5;entryY=0;entryDx=0;entryDy=0;" edge="1" parent="1" source="akqkvoF0evXeWd-GE654-126" target="akqkvoF0evXeWd-GE654-128">
          <mxGeometry relative="1" as="geometry" />
        </mxCell>
        <mxCell id="akqkvoF0evXeWd-GE654-126" value="Misconfigured API Endpoints&lt;div&gt;&lt;br&gt;&lt;/div&gt;" style="rounded=1;whiteSpace=wrap;html=1;strokeColor=yellow;" vertex="1" parent="1">
          <mxGeometry x="570" y="870" width="175" height="90" as="geometry" />
        </mxCell>
        <mxCell id="akqkvoF0evXeWd-GE654-127" value="&#xa;Lack of authorization controls.&#xa;&#xa;" style="rounded=1;whiteSpace=wrap;html=1;strokeColor=red;" vertex="1" parent="1">
          <mxGeometry x="472.5" y="1040" width="160" height="50" as="geometry" />
        </mxCell>
        <mxCell id="akqkvoF0evXeWd-GE654-128" value="&#xa;Publicly exposed sensitive APIs&#xa;&#xa;" style="rounded=1;whiteSpace=wrap;html=1;strokeColor=red;" vertex="1" parent="1">
          <mxGeometry x="680" y="1040" width="140" height="50" as="geometry" />
        </mxCell>
        <mxCell id="akqkvoF0evXeWd-GE654-129" value="" style="edgeStyle=orthogonalEdgeStyle;rounded=0;orthogonalLoop=1;jettySize=auto;html=1;" edge="1" parent="1" source="akqkvoF0evXeWd-GE654-130" target="akqkvoF0evXeWd-GE654-134">
          <mxGeometry relative="1" as="geometry" />
        </mxCell>
        <mxCell id="akqkvoF0evXeWd-GE654-130" value="TLS Exploits" style="rounded=1;whiteSpace=wrap;html=1;strokeColor=yellow;" vertex="1" parent="1">
          <mxGeometry x="1210" y="920" width="180" height="75" as="geometry" />
        </mxCell>
        <mxCell id="akqkvoF0evXeWd-GE654-131" style="edgeStyle=orthogonalEdgeStyle;rounded=0;orthogonalLoop=1;jettySize=auto;html=1;" edge="1" parent="1" source="akqkvoF0evXeWd-GE654-132" target="akqkvoF0evXeWd-GE654-135">
          <mxGeometry relative="1" as="geometry" />
        </mxCell>
        <mxCell id="akqkvoF0evXeWd-GE654-132" value="&lt;br&gt;Man-in-the-Middle (MITM) Attacks&lt;div&gt;&lt;br&gt;&lt;/div&gt;" style="rounded=1;whiteSpace=wrap;html=1;strokeColor=yellow;" vertex="1" parent="1">
          <mxGeometry x="1530" y="920" width="190" height="90" as="geometry" />
        </mxCell>
        <mxCell id="akqkvoF0evXeWd-GE654-133" style="edgeStyle=orthogonalEdgeStyle;rounded=0;orthogonalLoop=1;jettySize=auto;html=1;entryX=0.445;entryY=0.048;entryDx=0;entryDy=0;entryPerimeter=0;" edge="1" parent="1" source="akqkvoF0evXeWd-GE654-120" target="akqkvoF0evXeWd-GE654-132">
          <mxGeometry relative="1" as="geometry" />
        </mxCell>
        <mxCell id="akqkvoF0evXeWd-GE654-134" value="&#xa;Use outdated or weak encryption protocols (e.g., TLS 1.0/1.2)&#xa;&#xa;" style="rounded=1;whiteSpace=wrap;html=1;strokeColor=red;" vertex="1" parent="1">
          <mxGeometry x="1217" y="1060" width="166" height="90" as="geometry" />
        </mxCell>
        <mxCell id="akqkvoF0evXeWd-GE654-135" value="&#xa;Use network sniffers to capture unencrypted data&#xa;&#xa;" style="rounded=1;whiteSpace=wrap;html=1;strokeColor=red;" vertex="1" parent="1">
          <mxGeometry x="1530" y="1070" width="190" height="70" as="geometry" />
        </mxCell>
        <mxCell id="akqkvoF0evXeWd-GE654-185" value="Vulnerability" style="rounded=1;whiteSpace=wrap;html=1;strokeColor=yellow;" vertex="1" parent="1">
          <mxGeometry x="740" y="630" width="100" height="50" as="geometry" />
        </mxCell>
        <mxCell id="akqkvoF0evXeWd-GE654-186" value="Threat" style="rounded=1;whiteSpace=wrap;html=1;strokeColor=red;" vertex="1" parent="1">
          <mxGeometry x="747.5" y="710" width="92.5" height="40" as="geometry" />
        </mxCell>
      </root>
    </mxGraphModel>
  </diagram>
</mxfile>
